<svg xmlns="http://www.w3.org/2000/svg" viewBox="0 0 148 56" width="148" height="56">
  <!-- Ring mark (original path scaled to 56×56 via transform) -->
  <g transform="translate(0,0) scale(0.0927)">
    <path fill-rule="evenodd" fill="#15a7b8"
      d="m604 302.4c0 166.9-135.3 302.2-302.2 302.2c-166.9 0-302.2-135.3-302.2-302.2c0-166.9 135.3-302.2 302.2-302.2c166.9 0 302.2 135.3 302.2 302.2zm-185 0.2c0-64.7-52.5-117.2-117.2-117.2c-64.7 0-117.2 52.5-117.2 117.2c0 64.7 52.5 117.2 117.2 117.2c64.9 0 117.2-52.5 117.2-117.2z"/>
  </g>
  <!-- Wordmark -->
  <text x="68" y="23"
        font-family="Arial, Helvetica, sans-serif"
        font-size="14"
        font-weight="700"
        fill="#ffffff"
        letter-spacing="1">OUTLOOK</text>
  <text x="68" y="42"
        font-family="Arial, Helvetica, sans-serif"
        font-size="14"
        font-weight="700"
        fill="#15a7b8"
        letter-spacing="1">ENERGY</text>
</svg>
